<?xml version="1.0" encoding="utf-8"?>
<!-- Generator: Adobe Illustrator 19.2.0, SVG Export Plug-In . SVG Version: 6.00 Build 0)  -->
<svg xmlns="http://www.w3.org/2000/svg" viewBox="0 0 27 24">
	<g>
		<path class="hamburger-line" d="M25.4,1H1.6C1,1,0.6,1,0.4,0.9C0.1,0.8,0,0.7,0,0.5c0-0.2,0.1-0.3,0.4-0.4C0.6,0,1,0,1.6,0h23.8
			c0.6,0,1,0,1.2,0.1C26.9,0.2,27,0.3,27,0.5c0,0.2-0.1,0.3-0.4,0.4C26.4,1,26,1,25.4,1z"/>
		<path class="hamburger-line" d="M25.4,12H1.6c-0.6,0-1,0-1.2-0.1C0.1,11.8,0,11.7,0,11.5c0-0.2,0.1-0.3,0.4-0.4C0.6,11,1,11,1.6,11h23.8
			c0.6,0,1,0,1.2,0.1c0.2,0.1,0.4,0.2,0.4,0.4c0,0.2-0.1,0.3-0.4,0.4C26.4,12,26,12,25.4,12z"/>
		<path class="hamburger-line" d="M25.4,24H1.6c-0.6,0-1,0-1.2-0.1C0.1,23.8,0,23.7,0,23.5c0-0.2,0.1-0.3,0.4-0.4C0.6,23,1,23,1.6,23h23.8
			c0.6,0,1,0,1.2,0.1c0.2,0.1,0.4,0.2,0.4,0.4c0,0.2-0.1,0.3-0.4,0.4C26.4,24,26,24,25.4,24z"/>
	</g>
</svg>
